<svg width="64" height="64" xmlns="http://www.w3.org/2000/svg">
<path stroke="null" d="m37.04938,16.85185l-13.32406,0c0.43425,0.74478 0.7006,1.59939 0.7006,2.52469c0,0.92404 -0.26635,1.77865 -0.7006,2.52469l13.32406,0c2.79105,0 5.04938,2.26212 5.04938,5.04938c0,2.786 -2.25834,5.04938 -5.04938,5.04938l-15.14815,0l0,-8.27468c-0.74478,0.43298 -1.60065,0.7006 -2.52469,0.7006s-1.77991,-0.26762 -2.52469,-0.7006l0,20.89813c0,1.39363 1.13106,2.52469 2.52469,2.52469s2.52469,-1.13106 2.52469,-2.52469l0,-7.57407l10.09877,0l0,7.57407c0,1.39363 1.13106,2.52469 2.52469,2.52469s2.52469,-1.13106 2.52469,-2.52469l0,-7.57407c5.57831,0 10.09877,-4.52298 10.09877,-10.09877s-4.52046,-10.09877 -10.09877,-10.09877zm-20.19753,2.52469a2.52469,2.52469 0 1 0 5.04938,0a2.52469,2.52469 0 1 0 -5.04938,0" fill="#fff"/>
</svg>
