<?xml version="1.0" encoding="UTF-8"?>
<svg
  version="1.2"
  baseProfile="tiny"
  xmlns="http://www.w3.org/2000/svg"
  xmlns:xlink="http://www.w3.org/1999/xlink"
  viewBox="0 0 64 64"
>
  <title>Arich Logo</title>
  <desc>Official logo for the arich.win domain, BIMI-compliant SVG Tiny PS</desc>
  <path
    fill="#000000"
    d="M37.049,16.852h-13.324c0.434,0.745,0.701,1.599,0.701,2.525s-0.267,1.779-0.701,2.525h13.324
       c2.791,0,5.049,2.262,5.049,5.049s-2.258,5.049-5.049,5.049h-15.148v-8.275c-0.745,0.433-1.601,0.701-2.525,0.701
       s-1.78-0.268-2.525-0.701v20.898c0,1.394,1.131,2.525,2.525,2.525s2.525-1.131,2.525-2.525v-7.574h10.099v7.574
       c0,1.394,1.131,2.525,2.525,2.525s2.525-1.131,2.525-2.525v-7.574c5.578,0,10.099-4.523,10.099-10.099
       s-4.52-10.099-10.099-10.099zm-20.198,2.525a2.525,2.525 0 1,0 5.049,0a2.525,2.525 0 1,0 -5.049,0z"
  />
</svg>
